# Blender v2.80 (sub 75) OBJ File: ''
# www.blender.org
mtllib avocado.mtl
o Avocado_Avocado.001
v 0.021541 -1.856222 0.370575
v 0.275717 -1.738169 0.438342
v 0.177845 -1.641640 0.563005
v -0.001330 -1.671200 0.583356
v 0.070634 -1.429990 0.765815
v 0.300251 -1.449584 0.676338
v 0.502912 -1.492847 0.521734
v -0.217948 -1.679406 0.627520
v -0.215486 -1.878816 0.375634
v -0.461824 -1.845509 0.380859
v -0.451538 -1.686516 0.612488
v -0.691346 -1.641272 0.565315
v -0.730368 -1.396084 0.726103
v -0.856526 -1.572780 0.476834
v -0.687997 -1.742665 0.385607
v -0.871333 -1.585537 0.389404
v -1.038017 -1.346280 0.392793
v -0.940377 -1.357163 0.565521
v -0.460456 -1.436368 0.798519
v -0.463382 -1.095254 0.919358
v -0.778721 -1.054972 0.836928
v -1.018872 -1.000132 0.627087
v -0.810262 -0.672801 0.874971
v -1.050976 -0.622064 0.644452
v -1.166597 -0.801571 0.395172
v -1.145669 -0.985092 0.394846
v -1.095090 -1.186116 0.398298
v -0.139229 -1.097507 0.960109
v -0.183917 -1.427231 0.811374
v 0.176582 -1.089963 0.928435
v 0.233534 -0.706727 1.011336
v -0.114416 -0.714113 1.020502
v -0.484004 -0.718523 1.006442
v -0.106329 -0.316877 1.059726
v -0.467922 -0.328458 1.003605
v -0.787261 -0.286042 0.856904
v -0.444459 0.056290 0.947759
v -0.724891 0.090283 0.796048
v -0.918747 0.135415 0.577826
v -1.011783 -0.238558 0.619468
v -1.062812 -0.008837 0.391608
v -1.116822 -0.220649 0.383472
v 0.463656 -1.107929 0.833513
v 0.545231 -0.717679 0.908243
v 0.694211 -1.149156 0.648286
v 0.782732 -0.735499 0.668499
v 0.827213 -0.315711 0.703213
v 0.581605 -0.305053 0.955528
v 0.253078 -0.304292 1.064060
v 0.541287 0.122560 0.955103
v 0.217683 0.099926 1.015535
v -0.109184 0.075316 1.000328
v 0.136174 0.485236 0.902788
v -0.141037 0.441589 0.883781
v -0.406215 0.400447 0.821941
v -0.385442 0.609108 0.745620
v -0.212824 0.688972 0.764352
v -0.305999 0.862787 0.629386
v -0.511741 0.697886 0.644521
v -0.617242 0.433604 0.674413
v 0.415557 0.521282 0.848362
v 0.245530 0.824209 0.681200
v 0.021669 0.777183 0.749869
v 0.089638 1.022929 0.515489
v -0.111767 0.969549 0.582794
v -0.427908 0.967974 0.444585
v -0.230637 1.098018 0.426005
v 0.025094 1.115653 0.368583
v -0.213701 1.108464 0.373655
v -0.627109 0.784631 0.468601
v -0.341564 1.049611 0.376421
v -0.440640 1.004007 0.378565
v 0.634363 0.520826 0.651018
v 0.778605 0.114285 0.707454
v 0.657512 0.459133 0.355548
v 0.731788 0.277911 0.354087
v 0.897754 -0.337012 0.353126
v 0.895863 -0.570451 0.357706
v 0.885428 -0.755090 0.358458
v 0.856778 -1.019809 0.363850
v 0.826471 -1.180631 0.361944
v 0.736441 -1.371488 0.378384
v 0.860811 -0.158868 0.352241
v 0.800472 0.066410 0.351260
v 0.598220 -1.549706 0.369569
v 0.289125 -1.747748 0.364827
v -1.145459 -0.382063 0.387406
v -1.181027 -0.604636 0.391006
v -0.518456 0.922663 0.380268
v -0.642285 0.793221 0.382977
v -0.739651 0.645785 0.385144
v -0.829862 0.509182 0.387152
v -0.787405 0.496341 0.522491
v -0.907640 0.355275 0.388907
v -1.007116 0.158433 0.391152
v 0.396309 0.852767 0.360847
v 0.416385 0.824177 0.525824
v 0.564087 0.620923 0.357209
v 0.193145 1.028286 0.373079
v 0.423762 3.368305 0.212697
v 0.420339 3.368201 0.336997
v 0.723737 3.426772 0.339302
v 0.696215 3.422946 0.228557
v 0.360301 3.342191 0.078040
v 0.547613 3.361895 0.049258
v 0.302087 3.282038 -0.025845
v 0.413194 3.290732 -0.058360
v 0.292441 3.227175 -0.093447
v 0.136276 3.164791 -0.097807
v 0.147423 3.240241 0.000038
v 0.181242 3.290126 0.097362
v 0.216048 3.310883 0.211930
v 0.220567 3.303261 0.326532
v -0.019594 3.122936 -0.057945
v -0.003894 3.177777 0.012178
v 0.006703 3.218305 0.108694
v 0.013645 3.237127 0.220338
v 0.023285 3.229033 0.319605
v -0.145815 3.108628 0.018307
v -0.155621 3.146634 0.113950
v -0.176939 3.150470 0.233920
v -0.185221 3.159628 0.328523
v -0.291042 3.078526 0.108969
v -0.452693 3.059619 0.253284
v -0.452913 3.066349 0.324915
v -0.158827 3.126415 0.400443
v -0.473377 3.033128 0.399859
v 0.057458 3.179289 0.399392
v 0.257244 3.235846 0.399495
v 0.458619 3.283564 0.399939
v 0.728412 3.314969 0.399939
v -0.522783 2.971260 0.395190
v -0.558666 2.993235 0.332009
v -0.632303 2.862992 0.399987
v -0.656377 2.872446 0.322188
v -0.591394 2.863371 0.188062
v -0.712791 2.585702 0.131098
v -0.579112 2.586607 -0.080724
v -0.480231 2.836130 0.032418
v -0.397755 2.575668 -0.249405
v -0.321283 2.815452 -0.149438
v -0.153679 2.622776 -0.351900
v -0.106917 2.848640 -0.248646
v 0.113959 2.697840 -0.385314
v 0.128512 2.922127 -0.288750
v 0.385220 2.764610 -0.350865
v 0.362264 3.013104 -0.263659
v 0.620515 2.787060 -0.272498
v 0.577524 3.096343 -0.182136
v 0.818485 2.840987 -0.098529
v 0.753657 3.127494 -0.039972
v 0.937417 2.854793 0.094797
v 0.864811 3.176364 0.137778
v 0.976173 2.956758 0.287659
v 0.930393 3.222431 0.302574
v -0.238135 2.976568 -0.066662
v -0.389702 2.973175 0.070310
v -0.061021 3.011400 -0.153603
v 0.132504 3.067951 -0.188500
v 0.325817 3.139555 -0.172769
v 0.513333 3.221436 -0.114192
v 0.661816 3.286851 -0.005002
v 0.790651 3.322902 0.168428
v 0.839505 3.346940 0.313452
v 0.992747 2.315984 0.073074
v 0.885207 2.307301 -0.188818
v 1.086097 1.957886 0.033528
v 1.105419 1.945943 0.264578
v 1.003252 2.330175 0.268299
v 0.956569 1.962411 -0.284409
v 0.660114 2.308080 -0.396067
v 0.701892 1.970901 -0.543296
v 0.373502 2.303797 -0.493458
v 0.354927 1.954506 -0.661711
v 0.057062 2.280940 -0.541495
v 0.000020 1.944019 -0.711184
v -0.250481 2.255793 -0.499569
v -0.341027 1.930866 -0.654162
v -0.508021 2.245360 -0.350879
v -0.629196 1.907804 -0.463198
v -0.725477 2.247478 -0.159966
v -0.897897 1.917453 -0.230728
v -0.897075 2.253936 0.083969
v -1.093328 1.926487 0.055979
v -0.956832 2.248702 0.274613
v -1.146018 1.915355 0.259655
v -1.156730 1.404394 -0.418338
v -1.361683 1.410363 -0.035453
v -1.383499 0.886829 -0.617699
v -1.636234 0.893028 -0.141087
v -1.440049 1.402029 0.221243
v -1.736095 0.885004 0.176743
v -0.985209 0.877665 -0.996396
v -0.833271 1.395357 -0.723197
v -0.512840 0.885852 -1.250223
v -0.455251 1.403904 -0.930473
v 0.027128 0.892548 -1.345969
v -0.018176 1.410079 -1.011963
v 0.571055 0.899375 -1.269924
v 0.425172 1.419660 -0.958308
v 1.069954 0.908200 -1.030794
v 0.849756 1.439054 -0.775080
v 1.451342 0.904434 -0.638264
v 1.162079 1.439815 -0.452904
v 1.682311 0.891884 -0.139397
v 1.336920 1.420208 -0.036996
v 1.780116 0.882205 0.178609
v 1.424847 1.422040 0.223979
v -0.609043 0.372772 -1.516285
v -1.170056 0.369587 -1.225950
v -0.704558 -0.157170 -1.732305
v -1.332731 -0.157170 -1.412378
v -1.618246 0.369323 -0.777408
v -1.838259 -0.153896 -0.914778
v -1.900722 0.366256 -0.212599
v -2.150813 -0.157170 -0.285361
v -2.019447 0.360209 0.147252
v -2.271627 -0.166524 0.116500
v -0.008315 -0.157170 -1.842896
v 0.014114 0.371784 -1.612361
v 0.687928 -0.157170 -1.732305
v 0.638342 0.370439 -1.509868
v 1.316102 -0.157170 -1.412378
v 1.204677 0.372600 -1.224474
v 1.773379 -0.142302 -0.881681
v 1.638678 0.368130 -0.765339
v 2.036711 -0.153881 -0.290743
v 1.924011 0.378809 -0.217293
v 2.166432 -0.156926 0.116666
v 2.007619 0.374367 0.145046
v 0.720625 -0.658178 -1.834873
v -0.012276 -0.657677 -1.951041
v 0.718001 -1.174327 -1.854713
v -0.033248 -1.174029 -1.973920
v -0.745115 -0.657183 -1.834429
v -0.784462 -1.173735 -1.854466
v -1.406189 -0.656740 -1.497591
v -1.462127 -1.173472 -1.509190
v -1.936760 -0.655277 -0.973746
v -2.009567 -1.174379 -0.972531
v -2.267158 -0.656159 -0.311435
v -2.344520 -1.173123 -0.293226
v -2.397732 -0.659279 0.105528
v -2.462396 -1.169923 0.113193
v 1.395869 -1.174603 -1.509583
v 1.382077 -0.658639 -1.498297
v 1.887606 -1.170844 -0.945451
v 1.875133 -0.664577 -0.954768
v 2.139018 -1.175909 -0.302261
v 2.129218 -0.656607 -0.321905
v 2.219404 -1.173307 0.118386
v 2.205520 -0.659287 0.105490
v 1.852242 -1.646307 -0.908268
v 1.359538 -1.654095 -1.447895
v 1.768763 -2.084297 -0.854403
v 1.280620 -2.086012 -1.343138
v 0.700528 -1.654355 -1.783641
v 0.664447 -2.087089 -1.654673
v -0.028919 -1.654397 -1.898485
v -0.017753 -2.088895 -1.761506
v -0.757898 -1.654020 -1.780698
v -0.700327 -2.093125 -1.653588
v -1.413637 -1.653066 -1.443293
v -1.319111 -2.101228 -1.343534
v -1.947404 -1.658075 -0.922978
v -1.808993 -2.103830 -0.854440
v -2.274277 -1.657560 -0.265008
v -2.107178 -2.094499 -0.235062
v -2.386430 -1.649609 0.124999
v -2.216028 -2.081491 0.137972
v -1.857560 -2.516259 -0.185796
v -1.956965 -2.497670 0.159009
v -1.536540 -2.878023 -0.104424
v -1.622442 -2.853838 0.193400
v -1.300032 -2.886908 -0.584966
v -1.591200 -2.528251 -0.741692
v -0.928230 -2.880941 -0.953339
v -1.144872 -2.523844 -1.188230
v -0.464837 -2.876002 -1.182076
v -0.596941 -2.515820 -1.457974
v 0.104007 -2.857790 -1.262001
v 0.028246 -2.504475 -1.551822
v 0.604394 -2.843722 -1.176026
v 0.644354 -2.492521 -1.453072
v 1.076343 -2.839398 -0.940941
v 1.191864 -2.487757 -1.177457
v 1.460123 -2.838372 -0.561703
v 1.641328 -2.486008 -0.739458
v 1.614806 -2.831720 -0.099763
v 1.803089 -2.479141 -0.191528
v 1.719664 -2.828636 0.194939
v 1.918416 -2.474721 0.156961
v 1.952546 -2.096714 -0.249545
v 2.061966 -2.088241 0.134706
v 2.105864 -1.667983 -0.286042
v 2.189643 -1.656061 0.124020
v 2.213232 -1.174385 0.399939
v 2.198940 -0.659465 0.399939
v 2.132148 -0.157286 0.399939
v 1.987849 0.369760 0.399939
v 2.156389 -1.655642 0.399939
v 2.051541 -2.082370 0.399939
v 1.899688 -2.459650 0.403000
v 1.686763 -2.804540 0.407557
v 1.463329 -3.108864 0.246117
v 1.382259 -3.112634 0.020987
v 1.071699 -3.316652 0.153650
v 1.128851 -3.311201 0.301488
v 1.230202 -3.114543 -0.334445
v 0.941318 -3.318889 -0.095508
v 0.924253 -3.114290 -0.638935
v 0.741215 -3.319109 -0.291463
v 0.512268 -3.116272 -0.834120
v 0.322899 -3.328461 -0.440113
v 0.201736 -3.124549 -0.888827
v -0.322863 -3.148960 -0.820063
v -0.148282 -3.345565 -0.422321
v -0.713461 -3.147130 -0.628385
v -0.520004 -3.336944 -0.198197
v -0.954516 -3.153066 -0.392450
v -1.167325 -3.155588 0.015585
v -0.753041 -3.346198 0.153115
v -1.236619 -3.129741 0.244029
v -0.805692 -3.323736 0.301426
v 0.554639 -3.459164 0.088259
v 0.677506 -3.448790 0.274133
v 0.682456 -3.448414 0.352223
v -0.133097 -3.474672 0.086945
v 0.172406 -3.467096 -0.032524
v 0.184483 -3.479763 0.140499
v -0.255608 -3.448955 0.272807
v 0.182331 -3.491766 0.273519
v 0.181249 -3.446143 0.352018
v -0.264195 -3.443505 0.351781
v 1.119390 -3.306169 0.399939
v 1.440845 -3.077046 0.411437
v 0.703130 -3.442626 0.399939
v 0.179967 -3.431607 0.399939
v -0.278958 -3.419099 0.399939
v -0.791430 -3.303692 0.399939
v -1.208077 -3.078462 0.410233
v 0.179967 -3.431607 0.399939
v 0.703130 -3.442626 0.399939
v 1.119390 -3.306169 0.399939
v -0.791430 -3.303692 0.399939
v 1.440845 -3.077046 0.411437
v -1.208077 -3.078462 0.410233
v 1.686763 -2.804540 0.407557
v -1.576679 -2.810720 0.406810
v 1.899688 -2.459650 0.403000
v -1.921080 -2.470913 0.402745
v 2.051541 -2.082370 0.399939
v -2.183396 -2.070802 0.399939
v 2.156389 -1.655642 0.399939
v -2.327591 -1.642199 0.399939
v 2.213232 -1.174385 0.399939
v -2.402441 -1.167246 0.399939
v 2.198940 -0.659465 0.399939
v -2.344900 -0.662287 0.399939
v 2.132148 -0.157286 0.399939
v -2.216071 -0.174942 0.399939
v 1.987849 0.369760 0.399939
v -1.979986 0.355332 0.399939
v -1.694295 0.876111 0.399939
v 1.739758 0.875318 0.399939
v -1.403508 1.392640 0.399939
v 1.349748 1.393666 0.399939
v -1.107986 1.903573 0.399939
v 1.043719 1.922097 0.399939
v -0.931762 2.230048 0.399939
v 0.970894 2.327566 0.399939
v -0.754611 2.581324 0.399939
v 0.966196 2.965010 0.399939
v -0.632303 2.862992 0.399987
v 0.902859 3.191355 0.399939
v 0.257244 3.235846 0.399495
v 0.458619 3.283564 0.399939
v 0.830239 3.264203 0.399939
v 0.728412 3.314969 0.399939
v 0.057458 3.179289 0.399392
v -0.158827 3.126415 0.400443
v -0.473377 3.033128 0.399859
v -0.522783 2.971260 0.395190
v -2.344900 -0.662287 0.399939
v -2.402441 -1.167246 0.399939
v -2.327591 -1.642199 0.399939
v -2.183396 -2.070802 0.399939
v -1.921080 -2.470913 0.402745
v -1.576679 -2.810720 0.406810
v -2.216071 -0.174942 0.399939
v -1.979986 0.355332 0.399939
v -1.694295 0.876111 0.399939
v -1.403508 1.392640 0.399939
v -1.107986 1.903573 0.399939
v -0.931762 2.230048 0.399939
v -0.769119 2.582625 0.293898
v -0.754611 2.581324 0.399939
v 1.739758 0.875318 0.399939
v 1.349748 1.393666 0.399939
v 1.043719 1.922097 0.399939
v 0.970894 2.327566 0.399939
v 0.966196 2.965010 0.399939
v 0.902859 3.191355 0.399939
v 0.830239 3.264203 0.399939
v -0.529043 2.975376 0.226528
v -0.278958 -3.419099 0.399939
vt 0.860374 0.669777
vt 0.886970 0.687139
vt 0.874103 0.700911
vt 0.854996 0.697463
vt 0.859689 0.728375
vt 0.884740 0.724844
vt 0.909771 0.716492
vt 0.831432 0.698226
vt 0.833105 0.666256
vt 0.804299 0.668928
vt 0.806632 0.696781
vt 0.780503 0.699085
vt 0.777375 0.728468
vt 0.759803 0.701090
vt 0.776987 0.678779
vt 0.753799 0.694400
vt 0.731708 0.719971
vt 0.750400 0.725793
vt 0.805799 0.727401
vt 0.803923 0.762336
vt 0.771457 0.763630
vt 0.739114 0.763554
vt 0.765547 0.800936
vt 0.732146 0.803370
vt 0.707788 0.780098
vt 0.713378 0.759463
vt 0.722580 0.737122
vt 0.835882 0.764237
vt 0.833538 0.729177
vt 0.866903 0.765928
vt 0.869650 0.803353
vt 0.835869 0.800917
vt 0.800120 0.798909
vt 0.834122 0.838137
vt 0.798886 0.835675
vt 0.764342 0.839069
vt 0.798490 0.872677
vt 0.767169 0.877401
vt 0.738706 0.885833
vt 0.731906 0.844639
vt 0.712799 0.872898
vt 0.706714 0.848106
vt 0.896577 0.764312
vt 0.901890 0.803362
vt 0.925085 0.757376
vt 0.935424 0.800660
vt 0.935264 0.844324
vt 0.901229 0.842909
vt 0.868298 0.840906
vt 0.893776 0.881982
vt 0.862869 0.878097
vt 0.831466 0.875075
vt 0.854232 0.915280
vt 0.826896 0.911273
vt 0.799366 0.908255
vt 0.800861 0.930426
vt 0.819127 0.937666
vt 0.808486 0.958564
vt 0.786559 0.942016
vt 0.773989 0.915237
vt 0.881607 0.920190
vt 0.866217 0.954143
vt 0.843004 0.946686
vt 0.849955 0.979994
vt 0.828546 0.971092
vt 0.792322 0.976769
vt 0.814154 0.989584
vt 0.842664 0.997018
vt 0.815380 0.995007
vt 0.770109 0.957338
vt 0.800502 0.988716
vt 0.789626 0.983751
vt 0.909182 0.927598
vt 0.925954 0.887148
vt 0.936177 0.938601
vt 0.949073 0.918889
vt 0.970161 0.845216
vt 0.970075 0.817262
vt 0.967610 0.795775
vt 0.960597 0.764836
vt 0.954362 0.747030
vt 0.941067 0.726075
vt 0.967513 0.866699
vt 0.960125 0.893954
vt 0.925217 0.705716
vt 0.891456 0.681138
vt 0.704488 0.829356
vt 0.704006 0.802882
vt 0.779786 0.975905
vt 0.763888 0.963176
vt 0.751478 0.947365
vt 0.740468 0.932366
vt 0.752487 0.925587
vt 0.730650 0.915251
vt 0.719178 0.892136
vt 0.894063 0.977987
vt 0.888487 0.962642
vt 0.921435 0.955902
vt 0.864526 0.991047
vt 0.379922 0.265625
vt 0.382042 0.254086
vt 0.410804 0.261501
vt 0.405118 0.269413
vt 0.372254 0.277314
vt 0.389717 0.280987
vt 0.365647 0.287637
vt 0.376578 0.290805
vt 0.364052 0.295549
vt 0.347885 0.296999
vt 0.349801 0.285759
vt 0.354027 0.275524
vt 0.358345 0.264288
vt 0.359880 0.252985
vt 0.331677 0.294265
vt 0.333762 0.285798
vt 0.335366 0.275402
vt 0.336484 0.263873
vt 0.337289 0.253599
vt 0.318706 0.287157
vt 0.318010 0.276637
vt 0.315298 0.264474
vt 0.314035 0.254817
vt 0.303821 0.279589
vt 0.286400 0.267869
vt 0.284615 0.260935
vt 0.314627 0.246246
vt 0.278650 0.254675
vt 0.339179 0.243552
vt 0.362658 0.242599
vt 0.386869 0.243969
vt 0.418337 0.252913
vt 0.270427 0.258053
vt 0.272187 0.265196
vt 0.254964 0.267283
vt 0.258871 0.274465
vt 0.268440 0.285558
vt 0.247970 0.310114
vt 0.268545 0.324791
vt 0.281149 0.299690
vt 0.290368 0.337301
vt 0.299537 0.315294
vt 0.317193 0.342178
vt 0.322231 0.322214
vt 0.345352 0.341287
vt 0.346611 0.322751
vt 0.373160 0.336703
vt 0.370202 0.318087
vt 0.397429 0.330949
vt 0.391301 0.309563
vt 0.419600 0.318242
vt 0.409676 0.300027
vt 0.437186 0.306501
vt 0.423283 0.287663
vt 0.446563 0.290253
vt 0.432539 0.274163
vt 0.308650 0.300307
vt 0.292529 0.288418
vt 0.327130 0.306947
vt 0.347022 0.308571
vt 0.366822 0.305955
vt 0.385506 0.298781
vt 0.399536 0.289300
vt 0.413749 0.278493
vt 0.421673 0.267107
vt 0.459871 0.337064
vt 0.436074 0.353575
vt 0.480540 0.364570
vt 0.500339 0.349265
vt 0.473316 0.323402
vt 0.448760 0.383624
vt 0.406219 0.365978
vt 0.412021 0.397350
vt 0.374477 0.372426
vt 0.373336 0.405208
vt 0.340282 0.376052
vt 0.334988 0.408485
vt 0.306798 0.374944
vt 0.297949 0.407172
vt 0.276151 0.367278
vt 0.261920 0.400087
vt 0.248278 0.355974
vt 0.226703 0.387897
vt 0.221548 0.340738
vt 0.194159 0.371649
vt 0.204919 0.328523
vt 0.175557 0.359566
vt 0.200323 0.443725
vt 0.158628 0.425694
vt 0.182125 0.500231
vt 0.129446 0.483414
vt 0.132875 0.412605
vt 0.096038 0.470769
vt 0.235441 0.510694
vt 0.244487 0.455818
vt 0.287173 0.515571
vt 0.288419 0.461873
vt 0.339691 0.516175
vt 0.334240 0.463235
vt 0.392036 0.512772
vt 0.380319 0.459644
vt 0.444828 0.505155
vt 0.427630 0.450354
vt 0.497326 0.493266
vt 0.472561 0.435922
vt 0.550627 0.475398
vt 0.516336 0.415953
vt 0.583536 0.462253
vt 0.542372 0.401628
vt 0.282860 0.563952
vt 0.225603 0.561274
vt 0.279302 0.609222
vt 0.219397 0.609211
vt 0.166539 0.554535
vt 0.156693 0.607151
vt 0.105058 0.542227
vt 0.090062 0.601816
vt 0.065826 0.532877
vt 0.046823 0.597595
vt 0.338166 0.607945
vt 0.339325 0.563638
vt 0.397225 0.606017
vt 0.396013 0.560940
vt 0.458089 0.603028
vt 0.454004 0.555421
vt 0.522009 0.596022
vt 0.513806 0.546347
vt 0.586299 0.588800
vt 0.574348 0.531640
vt 0.631400 0.581887
vt 0.612033 0.519894
vt 0.398705 0.644705
vt 0.338666 0.645846
vt 0.398286 0.682983
vt 0.337875 0.683434
vt 0.278941 0.647772
vt 0.277958 0.686019
vt 0.217971 0.650196
vt 0.216970 0.691107
vt 0.153752 0.652744
vt 0.152758 0.698714
vt 0.084578 0.654543
vt 0.083863 0.708459
vt 0.039672 0.655483
vt 0.041646 0.714483
vt 0.460911 0.685159
vt 0.460730 0.644290
vt 0.527233 0.689687
vt 0.526362 0.644434
vt 0.595046 0.696563
vt 0.593460 0.642165
vt 0.640516 0.701150
vt 0.639904 0.640384
vt 0.522924 0.732383
vt 0.458674 0.723587
vt 0.513234 0.771967
vt 0.453252 0.759685
vt 0.397775 0.719047
vt 0.396156 0.753297
vt 0.339032 0.718933
vt 0.340691 0.752765
vt 0.280762 0.721899
vt 0.285743 0.756244
vt 0.221588 0.729206
vt 0.230111 0.765798
vt 0.159593 0.741237
vt 0.173174 0.781071
vt 0.094037 0.758072
vt 0.113330 0.803330
vt 0.054139 0.768767
vt 0.076227 0.818442
vt 0.141764 0.847789
vt 0.110037 0.866860
vt 0.175719 0.887866
vt 0.150839 0.907740
vt 0.217674 0.859232
vt 0.192933 0.821171
vt 0.261036 0.839737
vt 0.244450 0.802724
vt 0.304491 0.828122
vt 0.294235 0.792000
vt 0.351991 0.823001
vt 0.345127 0.787738
vt 0.396355 0.824404
vt 0.396511 0.788391
vt 0.441940 0.832599
vt 0.447876 0.795909
vt 0.488078 0.848296
vt 0.501677 0.810338
vt 0.527971 0.874279
vt 0.551026 0.835465
vt 0.555119 0.892100
vt 0.585370 0.853205
vt 0.570690 0.794137
vt 0.610745 0.808343
vt 0.586918 0.747846
vt 0.630074 0.757293
vt 0.671962 0.704852
vt 0.673188 0.638190
vt 0.662084 0.573486
vt 0.637760 0.508085
vt 0.659459 0.766676
vt 0.637329 0.821265
vt 0.606902 0.869459
vt 0.570571 0.909231
vt 0.520950 0.925150
vt 0.501763 0.909530
vt 0.468534 0.942187
vt 0.480357 0.954016
vt 0.471252 0.886213
vt 0.446638 0.923628
vt 0.433846 0.870580
vt 0.421458 0.911132
vt 0.392049 0.862312
vt 0.377124 0.904446
vt 0.362173 0.860949
vt 0.315502 0.866883
vt 0.330437 0.907968
vt 0.276767 0.878929
vt 0.290317 0.925215
vt 0.247989 0.894526
vt 0.214034 0.923923
vt 0.258274 0.954775
vt 0.196949 0.941641
vt 0.247842 0.968076
vt 0.407120 0.953236
vt 0.424871 0.968971
vt 0.427351 0.976630
vt 0.331205 0.958670
vt 0.364225 0.946635
vt 0.366479 0.963759
vt 0.315618 0.976730
vt 0.366943 0.977366
vt 0.367340 0.986647
vt 0.313724 0.984681
vt 0.483513 0.963647
vt 0.530792 0.939839
vt 0.430883 0.980556
vt 0.367496 0.991673
vt 0.311008 0.989742
vt 0.245809 0.978436
vt 0.188918 0.958444
vt 0.786115 0.006048
vt 0.836233 0.004628
vt 0.876210 0.017411
vt 0.693134 0.018980
vt 0.907169 0.039167
vt 0.653373 0.040871
vt 0.930920 0.065107
vt 0.618242 0.066781
vt 0.951560 0.098006
vt 0.585480 0.099580
vt 0.966371 0.134051
vt 0.560625 0.138101
vt 0.976714 0.174866
vt 0.547107 0.179269
vt 0.982498 0.220940
vt 0.540263 0.224829
vt 0.981488 0.270287
vt 0.546127 0.273170
vt 0.975436 0.318448
vt 0.558810 0.319774
vt 0.961975 0.369045
vt 0.581798 0.370416
vt 0.609531 0.420116
vt 0.938557 0.417658
vt 0.637751 0.469408
vt 0.901545 0.467596
vt 0.666420 0.518162
vt 0.872590 0.518446
vt 0.683532 0.549322
vt 0.865891 0.557350
vt 0.700747 0.582856
vt 0.865877 0.618429
vt 0.712659 0.609757
vt 0.859965 0.640158
vt 0.798141 0.644864
vt 0.817467 0.649297
vt 0.853058 0.647187
vt 0.843337 0.652121
vt 0.778960 0.639583
vt 0.758201 0.634667
vt 0.727986 0.625985
vt 0.723209 0.620077
vt 0.006780 0.653251
vt 0.009764 0.719172
vt 0.025631 0.780199
vt 0.051752 0.834122
vt 0.090661 0.885860
vt 0.137564 0.927798
vt 0.016246 0.589133
vt 0.040518 0.520301
vt 0.075653 0.456505
vt 0.118132 0.399462
vt 0.165172 0.348235
vt 0.195493 0.319127
vt 0.234759 0.298431
vt 0.228210 0.289612
vt 0.603097 0.447604
vt 0.557211 0.387024
vt 0.511202 0.337721
vt 0.481967 0.314316
vt 0.453848 0.283019
vt 0.439560 0.266919
vt 0.430349 0.259969
vt 0.277241 0.275088
vt 0.742153 0.007566
vn 0.1447 -0.7528 0.6422
vn 0.3658 -0.7111 0.6005
vn 0.2599 -0.6500 0.7141
vn 0.1608 -0.6829 0.7126
vn 0.1877 -0.5205 0.8330
vn 0.3424 -0.5481 0.7631
vn 0.5033 -0.5817 0.6390
vn 0.0444 -0.6909 0.7216
vn 0.0325 -0.7851 0.6186
vn -0.1572 -0.8089 0.5666
vn -0.1581 -0.6979 0.6986
vn -0.3987 -0.6538 0.6431
vn -0.4437 -0.4064 0.7987
vn -0.6478 -0.5770 0.4974
vn -0.3743 -0.7968 0.4744
vn -0.6989 -0.6241 0.3495
vn -0.8127 -0.4340 0.3889
vn -0.6987 -0.3656 0.6149
vn -0.1703 -0.4550 0.8741
vn -0.1917 -0.2619 0.9459
vn -0.4927 -0.2251 0.8406
vn -0.7521 -0.1797 0.6340
vn -0.5374 -0.0353 0.8426
vn -0.7634 0.0085 0.6459
vn -0.8776 -0.0911 0.4707
vn -0.8636 -0.1610 0.4777
vn -0.8422 -0.2497 0.4779
vn 0.0078 -0.2895 0.9572
vn 0.0362 -0.4859 0.8732
vn 0.1873 -0.3299 0.9253
vn 0.1712 -0.1692 0.9706
vn -0.0248 -0.1319 0.9909
vn -0.2253 -0.0933 0.9698
vn -0.0692 0.0285 0.9972
vn -0.2630 0.0772 0.9617
vn -0.5555 0.1383 0.8199
vn -0.3033 0.2455 0.9207
vn -0.5468 0.2889 0.7858
vn -0.7165 0.3084 0.6257
vn -0.7749 0.1771 0.6068
vn -0.8645 0.2460 0.4383
vn -0.8806 0.1874 0.4353
vn 0.4373 -0.3625 0.8230
vn 0.5081 -0.1847 0.8413
vn 0.6783 -0.3516 0.6452
vn 0.7975 -0.1596 0.5818
vn 0.8646 -0.0056 0.5024
vn 0.5268 -0.0291 0.8495
vn 0.1392 -0.0096 0.9902
vn 0.4804 0.2070 0.8523
vn 0.0787 0.1954 0.9776
vn -0.1179 0.2127 0.9700
vn 0.0299 0.3706 0.9283
vn -0.1537 0.3346 0.9297
vn -0.3383 0.3497 0.8737
vn -0.3609 0.3782 0.8525
vn -0.1911 0.4577 0.8683
vn -0.3048 0.6010 0.7389
vn -0.4971 0.4624 0.7343
vn -0.5373 0.3764 0.7547
vn 0.3975 0.4486 0.8005
vn 0.2965 0.6309 0.7170
vn -0.0026 0.5448 0.8385
vn 0.2387 0.7872 0.5687
vn -0.0993 0.6699 0.7358
vn -0.4288 0.6675 0.6088
vn -0.1844 0.7840 0.5928
vn 0.1188 0.8923 0.4355
vn 0.0079 0.9035 0.4285
vn -0.5899 0.5306 0.6086
vn -0.4481 0.8098 0.3788
vn -0.5377 0.7461 0.3926
vn 0.7686 0.4735 0.4301
vn 0.8372 0.2292 0.4965
vn 0.9264 0.3765 0.0111
vn 0.9393 0.3426 0.0201
vn 0.9781 0.0221 0.2071
vn 0.9628 -0.0766 0.2590
vn 0.9449 -0.0781 0.3179
vn 0.8971 -0.1838 0.4018
vn 0.8760 -0.2385 0.4192
vn 0.6715 -0.5086 0.5389
vn 0.9785 0.1532 0.1378
vn 0.9595 0.2807 0.0212
vn 0.5934 -0.6047 0.5312
vn 0.4985 -0.7593 0.4184
vn -0.8899 0.1360 0.4355
vn -0.8867 0.0570 0.4589
vn -0.6263 0.6851 0.3721
vn -0.7650 0.6132 0.1971
vn -0.8113 0.5159 0.2749
vn -0.8376 0.4366 0.3284
vn -0.6910 0.4106 0.5950
vn -0.8439 0.3891 0.3694
vn -0.8279 0.3534 0.4355
vn 0.7059 0.6982 0.1190
vn 0.6557 0.6767 0.3349
vn 0.8219 0.5696 -0.0033
vn 0.5444 0.7997 0.2531
vn -0.2121 0.9750 -0.0667
vn -0.2080 0.8688 0.4493
vn 0.0973 0.9063 0.4112
vn 0.1301 0.9628 -0.2368
vn -0.2198 0.9496 -0.2233
vn 0.0546 0.9085 -0.4143
vn -0.2583 0.8600 -0.4400
vn -0.0381 0.7796 -0.6251
vn -0.1829 0.6860 -0.7042
vn -0.2897 0.7016 -0.6510
vn -0.3374 0.8345 -0.4356
vn -0.3285 0.9237 -0.1970
vn -0.3128 0.9497 -0.0119
vn -0.2902 0.8727 0.3926
vn -0.3760 0.7001 -0.6070
vn -0.3820 0.8239 -0.4186
vn -0.3920 0.8971 -0.2036
vn -0.3721 0.9277 -0.0313
vn -0.3107 0.8944 0.3217
vn -0.4445 0.7324 -0.5158
vn -0.3935 0.8923 -0.2215
vn -0.3636 0.9243 -0.1155
vn -0.3105 0.9270 0.2103
vn -0.4561 0.7948 -0.4002
vn -0.4770 0.8242 -0.3052
vn -0.3927 0.9097 0.1352
vn -0.1672 0.5640 0.8087
vn -0.2436 0.4907 0.8366
vn -0.0310 0.1000 0.9945
vn -0.0312 0.0952 0.9950
vn -0.0766 0.3448 0.9355
vn 0.0565 0.3409 0.9384
vn -0.2849 0.2836 0.9156
vn -0.7286 0.6847 -0.0162
vn -0.0581 0.0303 0.9979
vn -0.8775 0.4634 -0.1233
vn -0.7486 0.4790 -0.4584
vn -0.7786 0.4610 -0.4258
vn -0.6673 0.4551 -0.5896
vn -0.6460 0.5075 -0.5702
vn -0.5193 0.4379 -0.7339
vn -0.5160 0.5064 -0.6909
vn -0.3085 0.4153 -0.8557
vn -0.3484 0.4807 -0.8047
vn -0.0569 0.3629 -0.9301
vn -0.1497 0.4488 -0.8810
vn 0.1772 0.3092 -0.9343
vn 0.0875 0.4168 -0.9048
vn 0.4741 0.2678 -0.8387
vn 0.3884 0.3901 -0.8349
vn 0.7506 0.2219 -0.6224
vn 0.6621 0.3543 -0.6604
vn 0.9256 0.1513 -0.3471
vn 0.8150 0.3346 -0.4731
vn 0.9908 0.1141 -0.0729
vn 0.9206 0.3565 -0.1594
vn -0.4869 0.6102 -0.6249
vn -0.5627 0.6134 -0.5541
vn -0.3725 0.5992 -0.7087
vn -0.2360 0.5943 -0.7688
vn -0.0679 0.5877 -0.8062
vn 0.1956 0.6037 -0.7729
vn 0.4474 0.6295 -0.6353
vn 0.6040 0.6370 -0.4790
vn 0.7175 0.6963 0.0169
vn 0.9401 0.1883 -0.2840
vn 0.7798 0.2523 -0.5730
vn 0.8787 0.3969 -0.2652
vn 0.9089 0.4070 0.0914
vn 0.9909 0.1310 0.0314
vn 0.7609 0.4109 -0.5022
vn 0.4845 0.3167 -0.8154
vn 0.4738 0.4458 -0.7594
vn 0.1939 0.3567 -0.9139
vn 0.1986 0.4635 -0.8636
vn -0.0321 0.4043 -0.9141
vn -0.0304 0.4796 -0.8769
vn -0.3192 0.4397 -0.8395
vn -0.3196 0.4944 -0.8083
vn -0.5318 0.4359 -0.7260
vn -0.5201 0.5008 -0.6918
vn -0.6613 0.4526 -0.5982
vn -0.6541 0.5030 -0.5649
vn -0.7745 0.4848 -0.4065
vn -0.7812 0.4985 -0.3758
vn -0.8664 0.4960 -0.0573
vn -0.8664 0.4982 -0.0338
vn -0.6712 0.5106 -0.5375
vn -0.7904 0.4976 -0.3574
vn -0.6929 0.4911 -0.5280
vn -0.8033 0.4798 -0.3529
vn -0.8648 0.4989 -0.0568
vn -0.8693 0.4869 -0.0854
vn -0.5080 0.4998 -0.7015
vn -0.5100 0.5166 -0.6878
vn -0.2806 0.5011 -0.8186
vn -0.3037 0.5182 -0.7995
vn -0.0119 0.4928 -0.8701
vn -0.0339 0.5191 -0.8540
vn 0.2525 0.4794 -0.8405
vn 0.2105 0.5174 -0.8295
vn 0.5158 0.4689 -0.7170
vn 0.4752 0.5133 -0.7146
vn 0.7286 0.4721 -0.4963
vn 0.7191 0.5086 -0.4735
vn 0.8152 0.4836 -0.3186
vn 0.8100 0.5122 -0.2855
vn 0.8662 0.4956 -0.0632
vn 0.8419 0.5397 0.0076
vn -0.2809 0.4415 -0.8522
vn -0.5236 0.4541 -0.7208
vn -0.2952 0.3123 -0.9029
vn -0.5555 0.3222 -0.7665
vn -0.7168 0.4586 -0.5253
vn -0.7637 0.3334 -0.5528
vn -0.8200 0.4529 -0.3500
vn -0.8673 0.3381 -0.3654
vn -0.8862 0.4543 -0.0908
vn -0.9350 0.3417 -0.0949
vn -0.0003 0.3059 -0.9521
vn -0.0005 0.4250 -0.9052
vn 0.2933 0.3014 -0.9073
vn 0.2789 0.4080 -0.8693
vn 0.5802 0.2930 -0.7600
vn 0.5530 0.3871 -0.7378
vn 0.8041 0.2683 -0.5305
vn 0.7696 0.3595 -0.5278
vn 0.9115 0.2282 -0.3421
vn 0.8726 0.3449 -0.3458
vn 0.9738 0.1961 -0.1155
vn 0.9332 0.3447 -0.1014
vn 0.3075 0.1199 -0.9440
vn 0.0016 0.1251 -0.9921
vn 0.3070 -0.0548 -0.9501
vn -0.0032 -0.0522 -0.9986
vn -0.3041 0.1347 -0.9431
vn -0.3129 -0.0467 -0.9486
vn -0.5762 0.1478 -0.8038
vn -0.5875 -0.0368 -0.8084
vn -0.7963 0.1638 -0.5824
vn -0.8112 -0.0220 -0.5843
vn -0.9066 0.1743 -0.3843
vn -0.9228 -0.0129 -0.3851
vn -0.9779 0.1845 -0.0987
vn -0.9960 -0.0096 -0.0892
vn 0.6081 -0.0529 -0.7921
vn 0.6060 0.1203 -0.7863
vn 0.8468 -0.0437 -0.5301
vn 0.8386 0.1150 -0.5325
vn 0.9535 -0.0321 -0.2997
vn 0.9445 0.0968 -0.3141
vn 0.9952 -0.0254 -0.0947
vn 0.9914 0.0720 -0.1093
vn 0.8326 -0.1823 -0.5230
vn 0.5925 -0.2013 -0.7800
vn 0.7973 -0.3285 -0.5064
vn 0.5546 -0.3404 -0.7593
vn 0.3010 -0.2175 -0.9285
vn 0.2842 -0.3606 -0.8884
vn -0.0019 -0.2222 -0.9750
vn -0.0015 -0.3702 -0.9289
vn -0.3033 -0.2253 -0.9259
vn -0.2829 -0.3746 -0.8830
vn -0.5701 -0.2287 -0.7891
vn -0.5401 -0.3846 -0.7486
vn -0.7880 -0.2389 -0.5675
vn -0.7430 -0.4078 -0.5307
vn -0.8959 -0.2477 -0.3687
vn -0.8395 -0.4268 -0.3364
vn -0.9645 -0.2511 -0.0814
vn -0.8935 -0.4424 -0.0773
vn -0.7549 -0.5882 -0.2902
vn -0.7957 -0.6044 -0.0409
vn -0.6271 -0.7430 -0.2339
vn -0.6717 -0.7404 0.0252
vn -0.5481 -0.7396 -0.3908
vn -0.6658 -0.5788 -0.4709
vn -0.3860 -0.7316 -0.5620
vn -0.4779 -0.5600 -0.6768
vn -0.1813 -0.7284 -0.6607
vn -0.2414 -0.5455 -0.8026
vn 0.0220 -0.7114 -0.7025
vn 0.0091 -0.5329 -0.8462
vn 0.2399 -0.6892 -0.6837
vn 0.2693 -0.5152 -0.8136
vn 0.4307 -0.6767 -0.5971
vn 0.5070 -0.4980 -0.7036
vn 0.6482 -0.6427 -0.4083
vn 0.7465 -0.4736 -0.4674
vn 0.7603 -0.5982 -0.2532
vn 0.8585 -0.4396 -0.2641
vn 0.8078 -0.5820 -0.0930
vn 0.8926 -0.4329 -0.1258
vn 0.9020 -0.3301 -0.2781
vn 0.9372 -0.3286 -0.1172
vn 0.9375 -0.1823 -0.2963
vn 0.9794 -0.1780 -0.0952
vn 0.0653 -0.0019 0.9979
vn 0.0665 0.0044 0.9978
vn 0.0681 0.0133 0.9976
vn 0.0667 0.0245 0.9975
vn 0.0638 -0.0111 0.9979
vn 0.0640 -0.0179 0.9978
vn 0.0650 -0.0218 0.9976
vn 0.0640 -0.0324 0.9974
vn 0.6547 -0.7543 -0.0481
vn 0.5939 -0.7734 -0.2219
vn 0.3972 -0.9040 -0.1578
vn 0.4503 -0.8926 -0.0209
vn 0.5030 -0.7985 -0.3308
vn 0.3543 -0.9037 -0.2405
vn 0.3204 -0.8277 -0.4607
vn 0.2126 -0.9143 -0.3448
vn 0.1927 -0.8335 -0.5179
vn 0.0897 -0.9229 -0.3745
vn 0.0284 -0.8484 -0.5287
vn -0.1228 -0.8674 -0.4822
vn -0.0885 -0.9333 -0.3479
vn -0.2809 -0.8640 -0.4178
vn -0.2263 -0.9453 -0.2350
vn -0.4044 -0.8659 -0.2944
vn -0.4606 -0.8697 -0.1776
vn -0.3023 -0.9459 -0.1180
vn -0.5285 -0.8447 0.0849
vn -0.3605 -0.9243 0.1257
vn 0.1508 -0.9697 -0.1923
vn 0.2157 -0.9757 -0.0383
vn 0.1669 -0.9798 0.1100
vn -0.1420 -0.9777 -0.1548
vn 0.0132 -0.9669 -0.2547
vn 0.0124 -0.9996 -0.0267
vn -0.1805 -0.9835 -0.0149
vn 0.0038 -0.9948 0.1017
vn -0.0074 -0.9566 0.2913
vn -0.1503 -0.9647 0.2163
vn 0.0449 -0.1334 0.9900
vn 0.0585 -0.0598 0.9965
vn 0.1331 -0.6154 0.7769
vn -0.0028 -0.1882 0.9821
vn -0.1245 -0.7025 0.7007
vn -0.0414 -0.1491 0.9880
vn -0.0553 -0.0787 0.9954
vn -0.0414 -0.1490 0.9880
vn -0.0610 -0.0553 0.9966
vn -0.0664 -0.0431 0.9969
vn -0.0674 -0.0309 0.9972
vn -0.0642 -0.0162 0.9978
vn 0.0653 -0.0018 0.9979
vn -0.0684 -0.0007 0.9977
vn -0.0661 0.0125 0.9977
vn 0.0681 0.0132 0.9976
vn -0.0675 0.0243 0.9974
vn -0.0645 0.0320 0.9974
vn -0.0626 0.0343 0.9974
vn 0.0659 0.0378 0.9971
vn -0.0613 0.0344 0.9975
vn 0.0575 0.0365 0.9977
vn -0.0552 0.0308 0.9980
vn 0.0533 0.0232 0.9983
vn -0.0520 0.0280 0.9983
vn 0.0738 0.0076 0.9972
vn -0.0432 0.0205 0.9989
vn 0.0863 0.0064 0.9962
vn -0.0580 0.0303 0.9979
vn 0.0823 0.0291 0.9962
vn 0.2846 0.2696 0.9200
vn -0.2848 0.2836 0.9157
vn -0.0684 -0.0006 0.9977
vn -0.0641 -0.0162 0.9978
vn -0.0665 -0.0431 0.9969
vn -0.0644 0.0320 0.9974
vn -0.0626 0.0344 0.9974
vn -0.0520 0.0279 0.9983
vn -0.8813 0.4584 -0.1146
vn 0.0739 0.0075 0.9972
vn 0.0863 0.0065 0.9962
vn 0.0822 0.0291 0.9962
vn -0.6381 0.6204 -0.4560
usemtl 2256_Avocado_d
s 1
f 1/1/1 2/2/2 3/3/3
f 4/4/4 1/1/1 3/3/3
f 5/5/5 4/4/4 3/3/3
f 6/6/6 5/5/5 3/3/3
f 7/7/7 6/6/6 3/3/3
f 2/2/2 7/7/7 3/3/3
f 1/1/1 4/4/4 8/8/8
f 4/4/4 5/5/5 8/8/8
f 9/9/9 1/1/1 8/8/8
f 9/9/9 8/8/8 10/10/10
f 8/8/8 11/11/11 10/10/10
f 11/11/11 12/12/12 10/10/10
f 12/12/12 11/11/11 13/13/13
f 12/12/12 13/13/13 14/14/14
f 15/15/15 12/12/12 14/14/14
f 12/12/12 15/15/15 10/10/10
f 16/16/16 15/15/15 14/14/14
f 17/17/17 16/16/16 14/14/14
f 18/18/18 17/17/17 14/14/14
f 13/13/13 18/18/18 14/14/14
f 11/11/11 19/19/19 13/13/13
f 19/19/19 11/11/11 8/8/8
f 19/19/19 20/20/20 13/13/13
f 20/20/20 21/21/21 13/13/13
f 13/13/13 21/21/21 18/18/18
f 21/21/21 22/22/22 18/18/18
f 21/21/21 23/23/23 22/22/22
f 23/23/23 24/24/24 22/22/22
f 24/24/24 25/25/25 22/22/22
f 25/25/25 26/26/26 22/22/22
f 18/18/18 22/22/22 26/26/26
f 27/27/27 17/17/17 18/18/18
f 27/27/27 18/18/18 26/26/26
f 28/28/28 20/20/20 19/19/19
f 29/29/29 28/28/28 19/19/19
f 29/29/29 19/19/19 8/8/8
f 5/5/5 29/29/29 8/8/8
f 30/30/30 28/28/28 29/29/29
f 5/5/5 30/30/30 29/29/29
f 30/30/30 31/31/31 28/28/28
f 31/31/31 32/32/32 28/28/28
f 33/33/33 20/20/20 28/28/28
f 32/32/32 33/33/33 28/28/28
f 21/21/21 20/20/20 33/33/33
f 23/23/23 21/21/21 33/33/33
f 32/32/32 34/34/34 33/33/33
f 34/34/34 35/35/35 33/33/33
f 36/36/36 23/23/23 33/33/33
f 35/35/35 36/36/36 33/33/33
f 24/24/24 23/23/23 36/36/36
f 35/35/35 37/37/37 36/36/36
f 37/37/37 38/38/38 36/36/36
f 38/38/38 39/39/39 36/36/36
f 39/39/39 40/40/40 36/36/36
f 40/40/40 24/24/24 36/36/36
f 39/39/39 41/41/41 40/40/40
f 41/41/41 42/42/42 40/40/40
f 31/31/31 30/30/30 43/43/43
f 43/43/43 30/30/30 5/5/5
f 44/44/44 31/31/31 43/43/43
f 44/44/44 43/43/43 45/45/45
f 46/46/46 44/44/44 45/45/45
f 45/45/45 43/43/43 6/6/6
f 7/7/7 45/45/45 6/6/6
f 6/6/6 43/43/43 5/5/5
f 46/46/46 47/47/47 44/44/44
f 47/47/47 48/48/48 44/44/44
f 48/48/48 49/49/49 44/44/44
f 49/49/49 31/31/31 44/44/44
f 48/48/48 50/50/50 49/49/49
f 50/50/50 51/51/51 49/49/49
f 51/51/51 52/52/52 49/49/49
f 52/52/52 34/34/34 49/49/49
f 32/32/32 31/31/31 49/49/49
f 34/34/34 32/32/32 49/49/49
f 51/51/51 53/53/53 52/52/52
f 51/51/51 50/50/50 53/53/53
f 53/53/53 54/54/54 52/52/52
f 54/54/54 55/55/55 52/52/52
f 55/55/55 54/54/54 56/56/56
f 54/54/54 57/57/57 56/56/56
f 57/57/57 54/54/54 53/53/53
f 57/57/57 58/58/58 56/56/56
f 58/58/58 59/59/59 56/56/56
f 60/60/60 55/55/55 56/56/56
f 59/59/59 60/60/60 56/56/56
f 55/55/55 37/37/37 52/52/52
f 35/35/35 34/34/34 52/52/52
f 37/37/37 35/35/35 52/52/52
f 50/50/50 61/61/61 53/53/53
f 61/61/61 62/62/62 53/53/53
f 62/62/62 63/63/63 53/53/53
f 63/63/63 57/57/57 53/53/53
f 58/58/58 57/57/57 63/63/63
f 62/62/62 64/64/64 63/63/63
f 64/64/64 65/65/65 63/63/63
f 65/65/65 58/58/58 63/63/63
f 66/66/66 58/58/58 65/65/65
f 59/59/59 58/58/58 66/66/66
f 67/67/67 66/66/66 65/65/65
f 64/64/64 67/67/67 65/65/65
f 64/64/64 68/68/68 67/67/67
f 68/68/68 69/69/69 67/67/67
f 70/70/70 59/59/59 66/66/66
f 67/67/67 71/71/71 66/66/66
f 67/67/67 69/69/69 71/71/71
f 71/71/71 72/72/72 66/66/66
f 62/62/62 61/61/61 73/73/73
f 73/73/73 61/61/61 74/74/74
f 75/75/75 73/73/73 74/74/74
f 76/76/76 75/75/75 74/74/74
f 61/61/61 50/50/50 74/74/74
f 50/50/50 48/48/48 74/74/74
f 48/48/48 47/47/47 74/74/74
f 74/74/74 47/47/47 77/77/77
f 77/77/77 47/47/47 46/46/46
f 78/78/78 77/77/77 46/46/46
f 78/78/78 46/46/46 79/79/79
f 80/80/80 79/79/79 46/46/46
f 80/80/80 46/46/46 45/45/45
f 81/81/81 80/80/80 45/45/45
f 82/82/82 81/81/81 45/45/45
f 83/83/83 74/74/74 77/77/77
f 83/83/83 84/84/84 74/74/74
f 84/84/84 76/76/76 74/74/74
f 82/82/82 45/45/45 7/7/7
f 85/85/85 82/82/82 7/7/7
f 85/85/85 7/7/7 86/86/86
f 7/7/7 2/2/2 86/86/86
f 86/86/86 2/2/2 1/1/1
f 87/87/87 88/88/88 24/24/24
f 24/24/24 88/88/88 25/25/25
f 87/87/87 24/24/24 40/40/40
f 42/42/42 87/87/87 40/40/40
f 89/89/89 90/90/90 70/70/70
f 91/91/91 70/70/70 90/90/90
f 91/91/91 92/92/92 70/70/70
f 92/92/92 93/93/93 70/70/70
f 59/59/59 70/70/70 93/93/93
f 60/60/60 59/59/59 93/93/93
f 38/38/38 60/60/60 93/93/93
f 39/39/39 38/38/38 93/93/93
f 55/55/55 60/60/60 38/38/38
f 37/37/37 55/55/55 38/38/38
f 94/94/94 39/39/39 93/93/93
f 92/92/92 94/94/94 93/93/93
f 94/94/94 95/95/95 39/39/39
f 39/39/39 95/95/95 41/41/41
f 89/89/89 70/70/70 66/66/66
f 72/72/72 89/89/89 66/66/66
f 96/96/96 97/97/97 73/73/73
f 98/98/98 96/96/96 73/73/73
f 97/97/97 62/62/62 73/73/73
f 96/96/96 99/99/99 97/97/97
f 99/99/99 64/64/64 97/97/97
f 64/64/64 62/62/62 97/97/97
f 68/68/68 64/64/64 99/99/99
f 75/75/75 98/98/98 73/73/73
f 100/100/100 101/101/101 102/102/102
f 103/103/103 100/100/100 102/102/102
f 100/100/100 103/103/103 104/104/104
f 103/103/103 105/105/105 104/104/104
f 104/104/104 105/105/105 106/106/106
f 105/105/105 107/107/107 106/106/106
f 106/106/106 107/107/107 108/108/108
f 106/106/106 108/108/108 109/109/109
f 110/110/110 106/106/106 109/109/109
f 104/104/104 106/106/106 110/110/110
f 111/111/111 104/104/104 110/110/110
f 100/100/100 104/104/104 111/111/111
f 112/112/112 100/100/100 111/111/111
f 100/100/100 112/112/112 101/101/101
f 112/112/112 113/113/113 101/101/101
f 110/110/110 109/109/109 114/114/114
f 115/115/115 110/110/110 114/114/114
f 111/111/111 110/110/110 115/115/115
f 116/116/116 111/111/111 115/115/115
f 112/112/112 111/111/111 116/116/116
f 117/117/117 112/112/112 116/116/116
f 112/112/112 117/117/117 113/113/113
f 117/117/117 118/118/118 113/113/113
f 115/115/115 114/114/114 119/119/119
f 116/116/116 115/115/115 119/119/119
f 120/120/120 116/116/116 119/119/119
f 117/117/117 116/116/116 120/120/120
f 121/121/121 117/117/117 120/120/120
f 117/117/117 121/121/121 118/118/118
f 121/121/121 122/122/122 118/118/118
f 120/120/120 119/119/119 123/123/123
f 120/120/120 123/123/123 124/124/124
f 121/121/121 120/120/120 124/124/124
f 121/121/121 124/124/124 122/122/122
f 124/124/124 125/125/125 122/122/122
f 122/122/122 125/125/125 126/126/126
f 125/125/125 127/127/127 126/126/126
f 122/122/122 126/126/126 128/128/128
f 118/118/118 122/122/122 128/128/128
f 118/118/118 128/128/128 129/129/129
f 113/113/113 118/118/118 129/129/129
f 113/113/113 129/129/129 130/130/130
f 101/101/101 113/113/113 130/130/130
f 101/101/101 130/130/130 131/131/131
f 102/102/102 101/101/101 131/131/131
f 132/132/132 127/127/127 125/125/125
f 133/133/133 132/132/132 125/125/125
f 134/134/134 132/132/132 133/133/133
f 135/135/135 134/134/134 133/133/133
f 135/135/135 133/133/133 136/136/136
f 135/135/135 136/136/136 137/137/137
f 137/137/137 136/136/136 138/138/138
f 136/136/136 139/139/139 138/138/138
f 138/138/138 139/139/139 140/140/140
f 139/139/139 141/141/141 140/140/140
f 140/140/140 141/141/141 142/142/142
f 141/141/141 143/143/143 142/142/142
f 142/142/142 143/143/143 144/144/144
f 143/143/143 145/145/145 144/144/144
f 144/144/144 145/145/145 146/146/146
f 145/145/145 147/147/147 146/146/146
f 146/146/146 147/147/147 148/148/148
f 147/147/147 149/149/149 148/148/148
f 148/148/148 149/149/149 150/150/150
f 149/149/149 151/151/151 150/150/150
f 150/150/150 151/151/151 152/152/152
f 151/151/151 153/153/153 152/152/152
f 152/152/152 153/153/153 154/154/154
f 153/153/153 155/155/155 154/154/154
f 141/141/141 156/156/156 143/143/143
f 157/157/157 156/156/156 141/141/141
f 156/156/156 158/158/158 143/143/143
f 143/143/143 158/158/158 145/145/145
f 158/158/158 159/159/159 145/145/145
f 145/145/145 159/159/159 147/147/147
f 159/159/159 160/160/160 147/147/147
f 147/147/147 160/160/160 149/149/149
f 160/160/160 161/161/161 149/149/149
f 149/149/149 161/161/161 151/151/151
f 161/161/161 162/162/162 151/151/151
f 151/151/151 162/162/162 153/153/153
f 162/162/162 163/163/163 153/153/153
f 153/153/153 163/163/163 155/155/155
f 163/163/163 164/164/164 155/155/155
f 150/150/150 152/152/152 165/165/165
f 166/166/166 150/150/150 165/165/165
f 166/166/166 165/165/165 167/167/167
f 167/167/167 165/165/165 168/168/168
f 165/165/165 169/169/169 168/168/168
f 170/170/170 166/166/166 167/167/167
f 171/171/171 166/166/166 170/170/170
f 172/172/172 171/171/171 170/170/170
f 173/173/173 171/171/171 172/172/172
f 174/174/174 173/173/173 172/172/172
f 175/175/175 173/173/173 174/174/174
f 176/176/176 175/175/175 174/174/174
f 177/177/177 175/175/175 176/176/176
f 178/178/178 177/177/177 176/176/176
f 179/179/179 177/177/177 178/178/178
f 180/180/180 179/179/179 178/178/178
f 181/181/181 179/179/179 180/180/180
f 182/182/182 181/181/181 180/180/180
f 183/183/183 181/181/181 182/182/182
f 184/184/184 183/183/183 182/182/182
f 185/185/185 183/183/183 184/184/184
f 186/186/186 185/185/185 184/184/184
f 184/184/184 182/182/182 187/187/187
f 188/188/188 184/184/184 187/187/187
f 186/186/186 184/184/184 188/188/188
f 188/188/188 187/187/187 189/189/189
f 190/190/190 188/188/188 189/189/189
f 191/191/191 188/188/188 190/190/190
f 191/191/191 186/186/186 188/188/188
f 192/192/192 191/191/191 190/190/190
f 189/189/189 187/187/187 193/193/193
f 187/187/187 194/194/194 193/193/193
f 182/182/182 180/180/180 194/194/194
f 187/187/187 182/182/182 194/194/194
f 193/193/193 194/194/194 195/195/195
f 194/194/194 196/196/196 195/195/195
f 195/195/195 196/196/196 197/197/197
f 196/196/196 198/198/198 197/197/197
f 197/197/197 198/198/198 199/199/199
f 198/198/198 200/200/200 199/199/199
f 199/199/199 200/200/200 201/201/201
f 200/200/200 202/202/202 201/201/201
f 201/201/201 202/202/202 203/203/203
f 202/202/202 204/204/204 203/203/203
f 203/203/203 204/204/204 205/205/205
f 204/204/204 206/206/206 205/205/205
f 205/205/205 206/206/206 207/207/207
f 206/206/206 208/208/208 207/207/207
f 193/193/193 195/195/195 209/209/209
f 210/210/210 193/193/193 209/209/209
f 210/210/210 209/209/209 211/211/211
f 212/212/212 210/210/210 211/211/211
f 213/213/213 210/210/210 212/212/212
f 214/214/214 213/213/213 212/212/212
f 215/215/215 213/213/213 214/214/214
f 216/216/216 215/215/215 214/214/214
f 217/217/217 215/215/215 216/216/216
f 218/218/218 217/217/217 216/216/216
f 211/211/211 209/209/209 219/219/219
f 209/209/209 220/220/220 219/219/219
f 219/219/219 220/220/220 221/221/221
f 220/220/220 222/222/222 221/221/221
f 221/221/221 222/222/222 223/223/223
f 222/222/222 224/224/224 223/223/223
f 223/223/223 224/224/224 225/225/225
f 224/224/224 226/226/226 225/225/225
f 225/225/225 226/226/226 227/227/227
f 226/226/226 228/228/228 227/227/227
f 227/227/227 228/228/228 229/229/229
f 228/228/228 230/230/230 229/229/229
f 219/219/219 221/221/221 231/231/231
f 232/232/232 219/219/219 231/231/231
f 232/232/232 231/231/231 233/233/233
f 234/234/234 232/232/232 233/233/233
f 235/235/235 232/232/232 234/234/234
f 236/236/236 235/235/235 234/234/234
f 237/237/237 235/235/235 236/236/236
f 238/238/238 237/237/237 236/236/236
f 239/239/239 237/237/237 238/238/238
f 240/240/240 239/239/239 238/238/238
f 241/241/241 239/239/239 240/240/240
f 242/242/242 241/241/241 240/240/240
f 243/243/243 241/241/241 242/242/242
f 244/244/244 243/243/243 242/242/242
f 233/233/233 231/231/231 245/245/245
f 231/231/231 246/246/246 245/245/245
f 245/245/245 246/246/246 247/247/247
f 246/246/246 248/248/248 247/247/247
f 247/247/247 248/248/248 249/249/249
f 248/248/248 250/250/250 249/249/249
f 249/249/249 250/250/250 251/251/251
f 250/250/250 252/252/252 251/251/251
f 245/245/245 247/247/247 253/253/253
f 254/254/254 245/245/245 253/253/253
f 254/254/254 253/253/253 255/255/255
f 256/256/256 254/254/254 255/255/255
f 257/257/257 254/254/254 256/256/256
f 258/258/258 257/257/257 256/256/256
f 259/259/259 257/257/257 258/258/258
f 260/260/260 259/259/259 258/258/258
f 261/261/261 259/259/259 260/260/260
f 262/262/262 261/261/261 260/260/260
f 263/263/263 261/261/261 262/262/262
f 264/264/264 263/263/263 262/262/262
f 265/265/265 263/263/263 264/264/264
f 266/266/266 265/265/265 264/264/264
f 267/267/267 265/265/265 266/266/266
f 268/268/268 267/267/267 266/266/266
f 269/269/269 267/267/267 268/268/268
f 270/270/270 269/269/269 268/268/268
f 269/269/269 244/244/244 267/267/267
f 244/244/244 242/242/242 267/267/267
f 267/267/267 242/242/242 265/265/265
f 242/242/242 240/240/240 265/265/265
f 265/265/265 240/240/240 263/263/263
f 240/240/240 238/238/238 263/263/263
f 263/263/263 238/238/238 261/261/261
f 238/238/238 236/236/236 261/261/261
f 261/261/261 236/236/236 259/259/259
f 236/236/236 234/234/234 259/259/259
f 259/259/259 234/234/234 257/257/257
f 234/234/234 233/233/233 257/257/257
f 257/257/257 233/233/233 254/254/254
f 233/233/233 245/245/245 254/254/254
f 270/270/270 268/268/268 271/271/271
f 272/272/272 270/270/270 271/271/271
f 272/272/272 271/271/271 273/273/273
f 274/274/274 272/272/272 273/273/273
f 273/273/273 271/271/271 275/275/275
f 271/271/271 276/276/276 275/275/275
f 275/275/275 276/276/276 277/277/277
f 276/276/276 278/278/278 277/277/277
f 277/277/277 278/278/278 279/279/279
f 278/278/278 280/280/280 279/279/279
f 279/279/279 280/280/280 281/281/281
f 280/280/280 282/282/282 281/281/281
f 281/281/281 282/282/282 283/283/283
f 282/282/282 284/284/284 283/283/283
f 283/283/283 284/284/284 285/285/285
f 284/284/284 286/286/286 285/285/285
f 285/285/285 286/286/286 287/287/287
f 286/286/286 288/288/288 287/287/287
f 287/287/287 288/288/288 289/289/289
f 288/288/288 290/290/290 289/289/289
f 289/289/289 290/290/290 291/291/291
f 290/290/290 292/292/292 291/291/291
f 290/290/290 293/293/293 292/292/292
f 293/293/293 294/294/294 292/292/292
f 293/293/293 295/295/295 294/294/294
f 295/295/295 296/296/296 294/294/294
f 253/253/253 295/295/295 293/293/293
f 255/255/255 253/253/253 293/293/293
f 255/255/255 293/293/293 290/290/290
f 288/288/288 255/255/255 290/290/290
f 253/253/253 247/247/247 295/295/295
f 247/247/247 249/249/249 295/295/295
f 295/295/295 249/249/249 296/296/296
f 249/249/249 251/251/251 296/296/296
f 256/256/256 255/255/255 288/288/288
f 286/286/286 256/256/256 288/288/288
f 258/258/258 256/256/256 286/286/286
f 284/284/284 258/258/258 286/286/286
f 260/260/260 258/258/258 284/284/284
f 282/282/282 260/260/260 284/284/284
f 262/262/262 260/260/260 282/282/282
f 280/280/280 262/262/262 282/282/282
f 264/264/264 262/262/262 280/280/280
f 278/278/278 264/264/264 280/280/280
f 266/266/266 264/264/264 278/278/278
f 276/276/276 266/266/266 278/278/278
f 268/268/268 266/266/266 276/276/276
f 271/271/271 268/268/268 276/276/276
f 251/251/251 252/252/252 297/297/297
f 252/252/252 298/298/298 297/297/297
f 252/252/252 229/229/229 298/298/298
f 227/227/227 229/229/229 252/252/252
f 250/250/250 227/227/227 252/252/252
f 225/225/225 227/227/227 250/250/250
f 248/248/248 225/225/225 250/250/250
f 223/223/223 225/225/225 248/248/248
f 246/246/246 223/223/223 248/248/248
f 221/221/221 223/223/223 246/246/246
f 231/231/231 221/221/221 246/246/246
f 229/229/229 299/299/299 298/298/298
f 229/229/229 230/230/230 299/299/299
f 230/230/230 300/300/300 299/299/299
f 251/251/251 297/297/297 301/301/301
f 296/296/296 251/251/251 301/301/301
f 296/296/296 301/301/301 302/302/302
f 294/294/294 296/296/296 302/302/302
f 294/294/294 302/302/302 303/303/303
f 292/292/292 294/294/294 303/303/303
f 292/292/292 303/303/303 304/304/304
f 291/291/291 292/292/292 304/304/304
f 305/305/305 291/291/291 304/304/304
f 305/305/305 306/306/306 291/291/291
f 307/307/307 306/306/306 305/305/305
f 308/308/308 307/307/307 305/305/305
f 309/309/309 306/306/306 307/307/307
f 310/310/310 309/309/309 307/307/307
f 311/311/311 309/309/309 310/310/310
f 312/312/312 311/311/311 310/310/310
f 313/313/313 311/311/311 312/312/312
f 314/314/314 313/313/313 312/312/312
f 315/315/315 313/313/313 314/314/314
f 316/316/316 315/315/315 314/314/314
f 317/317/317 316/316/316 314/314/314
f 318/318/318 316/316/316 317/317/317
f 319/319/319 318/318/318 317/317/317
f 320/320/320 318/318/318 319/319/319
f 321/321/321 320/320/320 319/319/319
f 322/322/322 321/321/321 319/319/319
f 323/323/323 321/321/321 322/322/322
f 324/324/324 323/323/323 322/322/322
f 325/325/325 312/312/312 310/310/310
f 325/325/325 310/310/310 307/307/307
f 326/326/326 325/325/325 307/307/307
f 327/327/327 326/326/326 307/307/307
f 308/308/308 327/327/327 307/307/307
f 328/328/328 319/319/319 317/317/317
f 329/329/329 328/328/328 317/317/317
f 330/330/330 328/328/328 329/329/329
f 330/330/330 329/329/329 325/325/325
f 328/328/328 330/330/330 331/331/331
f 331/331/331 322/322/322 319/319/319
f 328/328/328 331/331/331 319/319/319
f 330/330/330 332/332/332 331/331/331
f 325/325/325 326/326/326 332/332/332
f 330/330/330 325/325/325 332/332/332
f 332/332/332 333/333/333 331/331/331
f 326/326/326 327/327/327 333/333/333
f 332/332/332 326/326/326 333/333/333
f 333/333/333 334/334/334 331/331/331
f 334/334/334 324/324/324 322/322/322
f 331/331/331 334/334/334 322/322/322
f 325/325/325 329/329/329 312/312/312
f 329/329/329 314/314/314 312/312/312
f 329/329/329 317/317/317 314/314/314
f 308/308/308 335/335/335 327/327/327
f 335/335/335 308/308/308 336/336/336
f 308/308/308 305/305/305 336/336/336
f 336/336/336 305/305/305 304/304/304
f 335/335/335 337/337/337 327/327/327
f 333/333/333 338/338/338 334/334/334
f 338/338/338 339/339/339 334/334/334
f 334/334/334 339/339/339 324/324/324
f 339/339/339 340/340/340 324/324/324
f 324/324/324 340/340/340 323/323/323
f 340/340/340 341/341/341 323/323/323
f 323/323/323 341/341/341 274/274/274
f 323/323/323 274/274/274 321/321/321
f 274/274/274 273/273/273 321/321/321
f 321/321/321 273/273/273 320/320/320
f 273/273/273 275/275/275 320/320/320
f 320/320/320 275/275/275 318/318/318
f 275/275/275 277/277/277 318/318/318
f 318/318/318 277/277/277 316/316/316
f 277/277/277 279/279/279 316/316/316
f 316/316/316 279/279/279 315/315/315
f 279/279/279 281/281/281 315/315/315
f 315/315/315 281/281/281 313/313/313
f 281/281/281 283/283/283 313/313/313
f 313/313/313 283/283/283 311/311/311
f 283/283/283 285/285/285 311/311/311
f 311/311/311 285/285/285 309/309/309
f 285/285/285 287/287/287 309/309/309
f 309/309/309 287/287/287 306/306/306
f 287/287/287 289/289/289 306/306/306
f 306/306/306 289/289/289 291/291/291
f 342/342/338 343/343/337 344/344/335
f 345/345/342 342/342/338 344/344/335
f 345/345/342 344/344/335 346/346/336
f 347/347/341 345/345/342 346/346/336
f 347/347/341 346/346/336 348/348/304
f 349/349/343 347/347/341 348/348/304
f 349/349/343 348/348/304 350/350/303
f 351/351/344 349/349/343 350/350/303
f 351/351/344 350/350/303 352/352/302
f 353/353/345 351/351/344 352/352/302
f 353/353/345 352/352/302 354/354/301
f 355/355/346 353/353/345 354/354/301
f 355/355/346 354/354/301 356/356/347
f 357/357/348 355/355/346 356/356/347
f 357/357/348 356/356/347 358/358/298
f 359/359/349 357/357/348 358/358/298
f 359/359/349 358/358/298 360/360/350
f 361/361/351 359/359/349 360/360/350
f 360/360/350 362/362/300 361/361/351
f 362/362/300 363/363/352 361/361/351
f 364/364/353 363/363/352 362/362/300
f 365/365/354 364/364/353 362/362/300
f 366/366/355 364/364/353 365/365/354
f 367/367/356 366/366/355 365/365/354
f 368/368/357 366/366/355 367/367/356
f 369/369/358 368/368/357 367/367/356
f 370/370/359 368/368/357 369/369/358
f 371/371/360 370/370/359 369/369/358
f 372/372/361 370/370/359 371/371/360
f 373/373/362 372/372/361 371/371/360
f 374/374/363 372/372/361 373/373/362
f 375/375/364 374/374/363 373/373/362
f 375/375/364 376/376/129 374/374/363
f 375/375/364 377/377/130 376/376/129
f 375/375/364 378/378/365 377/377/130
f 378/378/365 379/379/131 377/377/130
f 376/376/129 380/380/128 374/374/363
f 380/380/128 381/381/126 374/374/363
f 381/381/126 382/382/127 374/374/363
f 382/382/127 383/383/366 374/374/363
f 216/216/216 214/214/214 239/239/239
f 241/241/241 216/216/216 239/239/239
f 239/239/239 214/214/214 237/237/237
f 214/214/214 212/212/212 237/237/237
f 237/237/237 212/212/212 235/235/235
f 212/212/212 211/211/211 235/235/235
f 235/235/235 211/211/211 232/232/232
f 211/211/211 219/219/219 232/232/232
f 218/218/218 216/216/216 241/241/241
f 243/243/243 218/218/218 241/241/241
f 243/243/243 384/384/349 218/218/218
f 385/385/367 384/384/349 243/243/243
f 244/244/244 385/385/367 243/243/243
f 386/386/368 385/385/367 244/244/244
f 269/269/269 386/386/368 244/244/244
f 387/387/345 386/386/368 269/269/269
f 270/270/270 387/387/345 269/269/269
f 388/388/369 387/387/345 270/270/270
f 272/272/272 388/388/369 270/270/270
f 389/389/343 388/388/369 272/272/272
f 274/274/274 389/389/343 272/272/272
f 341/341/341 389/389/343 274/274/274
f 384/384/349 390/390/351 218/218/218
f 218/218/218 390/390/351 217/217/217
f 390/390/351 391/391/370 217/217/217
f 217/217/217 391/391/370 192/192/192
f 217/217/217 192/192/192 215/215/215
f 192/192/192 190/190/190 215/215/215
f 215/215/215 190/190/190 213/213/213
f 190/190/190 189/189/189 213/213/213
f 213/213/213 189/189/189 210/210/210
f 189/189/189 193/193/193 210/210/210
f 391/391/370 392/392/371 192/192/192
f 192/192/192 392/392/371 191/191/191
f 392/392/371 393/393/355 191/191/191
f 191/191/191 393/393/355 186/186/186
f 393/393/355 394/394/357 186/186/186
f 186/186/186 394/394/357 185/185/185
f 394/394/357 395/395/372 185/185/185
f 185/185/185 395/395/372 396/396/373
f 185/185/185 396/396/373 183/183/183
f 396/396/373 137/137/137 183/183/183
f 396/396/373 135/135/135 137/137/137
f 183/183/183 137/137/137 181/181/181
f 137/137/137 138/138/138 181/181/181
f 181/181/181 138/138/138 179/179/179
f 138/138/138 140/140/140 179/179/179
f 179/179/179 140/140/140 177/177/177
f 140/140/140 142/142/142 177/177/177
f 177/177/177 142/142/142 175/175/175
f 142/142/142 144/144/144 175/175/175
f 175/175/175 144/144/144 173/173/173
f 144/144/144 146/146/146 173/173/173
f 173/173/173 146/146/146 171/171/171
f 146/146/146 148/148/148 171/171/171
f 171/171/171 148/148/148 166/166/166
f 148/148/148 150/150/150 166/166/166
f 397/397/361 134/134/134 135/135/135
f 395/395/372 397/397/361 396/396/373
f 396/396/373 397/397/361 135/135/135
f 195/195/195 197/197/197 220/220/220
f 209/209/209 195/195/195 220/220/220
f 220/220/220 197/197/197 222/222/222
f 197/197/197 199/199/199 222/222/222
f 222/222/222 199/199/199 224/224/224
f 199/199/199 201/201/201 224/224/224
f 224/224/224 201/201/201 226/226/226
f 201/201/201 203/203/203 226/226/226
f 226/226/226 203/203/203 228/228/228
f 203/203/203 205/205/205 228/228/228
f 228/228/228 205/205/205 207/207/207
f 230/230/230 228/228/228 207/207/207
f 230/230/230 207/207/207 300/300/300
f 207/207/207 398/398/354 300/300/300
f 207/207/207 208/208/208 398/398/354
f 208/208/208 399/399/356 398/398/354
f 208/208/208 168/168/168 399/399/356
f 167/167/167 168/168/168 208/208/208
f 206/206/206 167/167/167 208/208/208
f 170/170/170 167/167/167 206/206/206
f 204/204/204 170/170/170 206/206/206
f 172/172/172 170/170/170 204/204/204
f 202/202/202 172/172/172 204/204/204
f 174/174/174 172/172/172 202/202/202
f 200/200/200 174/174/174 202/202/202
f 176/176/176 174/174/174 200/200/200
f 198/198/198 176/176/176 200/200/200
f 178/178/178 176/176/176 198/198/198
f 196/196/196 178/178/178 198/198/198
f 180/180/180 178/178/178 196/196/196
f 194/194/194 180/180/180 196/196/196
f 168/168/168 400/400/358 399/399/356
f 168/168/168 169/169/169 400/400/358
f 169/169/169 401/401/374 400/400/358
f 169/169/169 154/154/154 401/401/374
f 152/152/152 154/154/154 169/169/169
f 165/165/165 152/152/152 169/169/169
f 154/154/154 402/402/375 401/401/374
f 154/154/154 155/155/155 402/402/375
f 155/155/155 403/403/376 402/402/375
f 155/155/155 164/164/164 403/403/376
f 164/164/164 404/404/365 403/403/376
f 164/164/164 102/102/102 404/404/365
f 103/103/103 102/102/102 164/164/164
f 163/163/163 103/103/103 164/164/164
f 105/105/105 103/103/103 163/163/163
f 162/162/162 105/105/105 163/163/163
f 107/107/107 105/105/105 162/162/162
f 161/161/161 107/107/107 162/162/162
f 108/108/108 107/107/107 161/161/161
f 160/160/160 108/108/108 161/161/161
f 109/109/109 108/108/108 160/160/160
f 159/159/159 109/109/109 160/160/160
f 114/114/114 109/109/109 159/159/159
f 158/158/158 114/114/114 159/159/159
f 119/119/119 114/114/114 158/158/158
f 156/156/156 119/119/119 158/158/158
f 123/123/123 119/119/119 156/156/156
f 157/157/157 123/123/123 156/156/156
f 124/124/124 123/123/123 157/157/157
f 405/405/377 124/124/124 157/157/157
f 405/405/377 157/157/157 139/139/139
f 136/136/136 405/405/377 139/139/139
f 133/133/133 405/405/377 136/136/136
f 139/139/139 157/157/157 141/141/141
f 125/125/125 124/124/124 405/405/377
f 133/133/133 125/125/125 405/405/377
f 327/327/327 337/337/337 338/338/338
f 333/333/333 327/327/327 338/338/338
f 102/102/102 131/131/131 404/404/365
f 345/345/342 406/406/339 342/342/338
