# Blender 3.5.1
# www.blender.org
mtllib cube.mtl
o Cube.001
v -1.550594 -0.724273 -0.266621
v -1.178657 1.240839 -0.266622
v 0.447939 0.932973 -1.388853
v 0.076002 -1.032139 -1.388853
v 1.550594 0.724273 0.266622
v 1.178657 -1.240839 0.266622
v -0.076002 1.032139 1.388853
v -0.447939 -0.932973 1.388853
vn -0.5513 0.1043 -0.8277
vn 0.8133 -0.1539 -0.5611
vn 0.5513 -0.1043 0.8277
vn -0.8133 0.1539 0.5611
vn -0.1860 -0.9826 -0.0000
vn 0.1860 0.9826 -0.0000
vt 0.375000 0.000000
vt 0.375000 1.000000
vt 0.125000 0.750000
vt 0.625000 0.000000
vt 0.625000 1.000000
vt 0.875000 0.750000
vt 0.625000 0.250000
vt 0.875000 0.500000
vt 0.375000 0.250000
vt 0.125000 0.500000
vt 0.625000 0.500000
vt 0.375000 0.500000
vt 0.625000 0.750000
vt 0.375000 0.750000
s 1
usemtl Default_OBJ
f 1/1/1 2/4/1 3/7/1 4/9/1
f 4/9/2 3/7/2 5/11/2 6/12/2
f 6/12/3 5/11/3 7/13/3 8/14/3
f 8/14/4 7/13/4 2/5/4 1/2/4
f 4/10/5 6/12/5 8/14/5 1/3/5
f 5/11/6 3/8/6 2/6/6 7/13/6
